<?xml version="1.0" encoding="UTF-8"?>
<svg xmlns="http://www.w3.org/2000/svg" viewBox="0 0 480 260" width="480" height="260">

  <defs>
    <linearGradient id="gradBP" x1="0%" y1="0%" x2="100%" y2="100%">
      <stop offset="0%" stop-color="#7AA2F7"/>
      <stop offset="55%" stop-color="#BB9AF7"/>
      <stop offset="100%" stop-color="#F7768E"/>
    </linearGradient>
    <linearGradient id="gradBC" x1="0%" y1="0%" x2="100%" y2="100%">
      <stop offset="0%" stop-color="#7AA2F7"/>
      <stop offset="100%" stop-color="#7DCFFF"/>
    </linearGradient>
    <linearGradient id="gradGB" x1="0%" y1="0%" x2="100%" y2="0%">
      <stop offset="0%" stop-color="#9ECE6A"/>
      <stop offset="55%" stop-color="#7DCFFF"/>
      <stop offset="100%" stop-color="#7AA2F7"/>
    </linearGradient>
    <linearGradient id="gradPO" x1="0%" y1="0%" x2="100%" y2="0%">
      <stop offset="0%" stop-color="#BB9AF7"/>
      <stop offset="100%" stop-color="#E0AF68"/>
    </linearGradient>
    <linearGradient id="gradBPP" x1="0%" y1="0%" x2="100%" y2="0%">
      <stop offset="0%" stop-color="#7AA2F7"/>
      <stop offset="50%" stop-color="#BB9AF7"/>
      <stop offset="100%" stop-color="#F7768E"/>
    </linearGradient>
    <filter id="glowBP" x="-30%" y="-30%" width="160%" height="160%">
      <feGaussianBlur stdDeviation="4" result="b"/>
      <feMerge><feMergeNode in="b"/><feMergeNode in="SourceGraphic"/></feMerge>
    </filter>
    <filter id="softShadow" x="-10%" y="-20%" width="120%" height="140%">
      <feDropShadow dx="0" dy="10" stdDeviation="14" flood-color="#000000" flood-opacity="0.55"/>
    </filter>
  </defs>

<rect width="480" height="260" rx="16" fill="#1A1B26" filter="url(#softShadow)"/>
<rect x="0" y="0" width="480" height="4" fill="url(#gradBC)"/>
<text x="28" y="36" font-family="Fira Code,monospace" font-size="17" font-weight="800" fill="#7DCFFF">🧩 Top Languages · 常用语言占比</text>
<text x="28" y="54" font-family="Fira Code,monospace" font-size="11" fill="#A9B1D6">Estimated distribution · TokyoNight palette</text>

<!-- 大横条 -->
<g transform="translate(28,72)">
  <rect x="0" y="0" width="424" height="18" rx="9" fill="#16161E"/>
  <rect x="0" y="0" width="148" height="18" rx="9" fill="#7AA2F7"/>
  <rect x="148" y="0" width="98" height="18" fill="#BB9AF7"/>
  <rect x="246" y="0" width="64" height="18" fill="#7DCFFF"/>
  <rect x="310" y="0" width="48" height="18" fill="#9ECE6A"/>
  <rect x="358" y="0" width="36" height="18" fill="#E0AF68"/>
  <rect x="394" y="0" width="30" height="18" fill="#F7768E"/>
</g>

<!-- 列表 -->
<g transform="translate(28,108)" font-family="Fira Code,monospace">
  
    <circle cx="8" cy="10" r="6" fill="#7AA2F7"/>
    <text x="26" y="14" font-size="13" font-weight="700" fill="#C0CAF5">Python</text>
    <text x="160" y="14" font-size="12" font-weight="800" fill="#7AA2F7">35%</text>
    <rect x="200" y="5" width="252" height="10" rx="5" fill="#16161E"/>
    <rect x="200" y="5" width="88.2" height="10" rx="5" fill="#7AA2F7"/>
    <text x="200" y="-2" font-size="9" fill="#A9B1D6" opacity="0.8">数据挖掘 / 爬虫 / NLP 分析</text>
    <circle cx="8" cy="34" r="6" fill="#BB9AF7"/>
    <text x="26" y="38" font-size="13" font-weight="700" fill="#C0CAF5">C++</text>
    <text x="160" y="38" font-size="12" font-weight="800" fill="#BB9AF7">23%</text>
    <rect x="200" y="29" width="252" height="10" rx="5" fill="#16161E"/>
    <rect x="200" y="29" width="57.96" height="10" rx="5" fill="#BB9AF7"/>
    <text x="200" y="22" font-size="9" fill="#A9B1D6" opacity="0.8">算法竞赛 / 高性能计算</text>
    <circle cx="8" cy="58" r="6" fill="#7DCFFF"/>
    <text x="26" y="62" font-size="13" font-weight="700" fill="#C0CAF5">JavaScript</text>
    <text x="160" y="62" font-size="12" font-weight="800" fill="#7DCFFF">15%</text>
    <rect x="200" y="53" width="252" height="10" rx="5" fill="#16161E"/>
    <rect x="200" y="53" width="37.8" height="10" rx="5" fill="#7DCFFF"/>
    <text x="200" y="46" font-size="9" fill="#A9B1D6" opacity="0.8">前端全栈 / Node 脚本</text>
    <circle cx="8" cy="82" r="6" fill="#9ECE6A"/>
    <text x="26" y="86" font-size="13" font-weight="700" fill="#C0CAF5">Go</text>
    <text x="160" y="86" font-size="12" font-weight="800" fill="#9ECE6A">11%</text>
    <rect x="200" y="77" width="252" height="10" rx="5" fill="#16161E"/>
    <rect x="200" y="77" width="27.72" height="10" rx="5" fill="#9ECE6A"/>
    <text x="200" y="70" font-size="9" fill="#A9B1D6" opacity="0.8">工具链 / CLI 程序</text>
    <circle cx="8" cy="106" r="6" fill="#E0AF68"/>
    <text x="26" y="110" font-size="13" font-weight="700" fill="#C0CAF5">SQL / YAML</text>
    <text x="160" y="110" font-size="12" font-weight="800" fill="#E0AF68">8%</text>
    <rect x="200" y="101" width="252" height="10" rx="5" fill="#16161E"/>
    <rect x="200" y="101" width="20.16" height="10" rx="5" fill="#E0AF68"/>
    <text x="200" y="94" font-size="9" fill="#A9B1D6" opacity="0.8">数据库 / 配置文件</text>
    <circle cx="8" cy="130" r="6" fill="#F7768E"/>
    <text x="26" y="134" font-size="13" font-weight="700" fill="#C0CAF5">Markdown/Shell</text>
    <text x="160" y="134" font-size="12" font-weight="800" fill="#F7768E">8%</text>
    <rect x="200" y="125" width="252" height="10" rx="5" fill="#16161E"/>
    <rect x="200" y="125" width="20.16" height="10" rx="5" fill="#F7768E"/>
    <text x="200" y="118" font-size="9" fill="#A9B1D6" opacity="0.8">README / 自动化脚本</text>
</g>
<rect x="0" y="256" width="480" height="4" fill="url(#gradBC)"/>
</svg>